<?xml version="1.0" encoding="UTF-8" standalone="no"?>
<!-- Generator: Adobe Illustrator 12.0.1, SVG Export Plug-In . SVG Version: 6.00 Build 51448)  -->
<svg
   xmlns:dc="http://purl.org/dc/elements/1.1/"
   xmlns:cc="http://creativecommons.org/ns#"
   xmlns:rdf="http://www.w3.org/1999/02/22-rdf-syntax-ns#"
   xmlns:svg="http://www.w3.org/2000/svg"
   xmlns="http://www.w3.org/2000/svg"
   xmlns:xlink="http://www.w3.org/1999/xlink"
   xmlns:sodipodi="http://sodipodi.sourceforge.net/DTD/sodipodi-0.dtd"
   xmlns:inkscape="http://www.inkscape.org/namespaces/inkscape"
   version="1.0"
   id="Deutsche_Hängeflagge_5:2"
   width="300"
   height="1257"
   viewBox="0 0 600 1500"
   overflow="visible"
   enable-background="new 0 0 600 1500"
   xml:space="preserve"
   sodipodi:version="0.32"
   inkscape:version="0.46"
   sodipodi:docname="Flag of Europe (hanging).svg"
   inkscape:output_extension="org.inkscape.output.svg.inkscape"
   style="overflow:visible"><metadata
   id="metadata42"><rdf:RDF><cc:Work
       rdf:about=""><dc:format>image/svg+xml</dc:format><dc:type
         rdf:resource="http://purl.org/dc/dcmitype/StillImage" /></cc:Work></rdf:RDF></metadata><sodipodi:namedview
   inkscape:window-height="750"
   inkscape:window-width="1280"
   inkscape:pageshadow="2"
   inkscape:pageopacity="0.0"
   guidetolerance="10.0"
   gridtolerance="10.0"
   objecttolerance="10.0"
   borderopacity="1.0"
   bordercolor="#666666"
   pagecolor="#ffffff"
   id="base"
   showgrid="false"
   inkscape:zoom="0.23083958"
   inkscape:cx="150"
   inkscape:cy="628.5"
   inkscape:window-x="-8"
   inkscape:window-y="-8"
   inkscape:current-layer="Deutsche_Hängeflagge_5:2" />


<defs
   id="defs6"><inkscape:perspective
     sodipodi:type="inkscape:persp3d"
     inkscape:vp_x="0 : 750 : 1"
     inkscape:vp_y="0 : 1000 : 0"
     inkscape:vp_z="600 : 750 : 1"
     inkscape:persp3d-origin="300 : 500 : 1"
     id="perspective44" /><g
     id="s"><g
       id="c"><path
         id="t"
         d="M 0,0 L 0,1 L 0.5,1 L 0,0 z"
         transform="matrix(0.9510565,0.309017,-0.309017,0.9510565,0,-1)" /><use
         xlink:href="#t"
         transform="scale(-1,1)"
         id="use11"
         x="0"
         y="0"
         width="600"
         height="1500" /></g><g
       id="a"><use
         xlink:href="#c"
         transform="matrix(0.309017,0.9510565,-0.9510565,0.309017,0,0)"
         id="use14"
         x="0"
         y="0"
         width="600"
         height="1500" /><use
         xlink:href="#c"
         transform="matrix(-0.809017,0.5877853,-0.5877853,-0.809017,0,0)"
         id="use16"
         x="0"
         y="0"
         width="600"
         height="1500" /></g><use
       xlink:href="#a"
       transform="scale(-1,1)"
       id="use18"
       x="0"
       y="0"
       width="600"
       height="1500" /></g><inkscape:perspective
     id="perspective2444"
     inkscape:persp3d-origin="372.04724 : 350.78739 : 1"
     inkscape:vp_z="744.09448 : 526.18109 : 1"
     inkscape:vp_y="0 : 1000 : 0"
     inkscape:vp_x="0 : 526.18109 : 1"
     sodipodi:type="inkscape:persp3d" /><g
     id="g2585"><g
       id="g2587"><path
         transform="matrix(0.9510565,0.309017,-0.309017,0.9510565,0,-1)"
         d="M 0,0 L 0,1 L 0.5,1 L 0,0 z"
         id="path2589" /><use
         id="use2549"
         transform="scale(-1,1)"
         xlink:href="#t"
         x="0"
         y="0"
         width="600"
         height="1500" /></g><g
       id="g2592"><use
         id="use2552"
         transform="matrix(0.309017,0.9510565,-0.9510565,0.309017,0,0)"
         xlink:href="#c"
         x="0"
         y="0"
         width="600"
         height="1500" /><use
         id="use2554"
         transform="matrix(-0.809017,0.5877853,-0.5877853,-0.809017,0,0)"
         xlink:href="#c"
         x="0"
         y="0"
         width="600"
         height="1500" /></g><use
       id="use2556"
       transform="scale(-1,1)"
       xlink:href="#a"
       x="0"
       y="0"
       width="600"
       height="1500" /></g><inkscape:perspective
     id="perspective2582"
     inkscape:persp3d-origin="405 : 180 : 1"
     inkscape:vp_z="810 : 270 : 1"
     inkscape:vp_y="0 : 1000 : 0"
     inkscape:vp_x="0 : 270 : 1"
     sodipodi:type="inkscape:persp3d" /><inkscape:perspective
     id="perspective2696"
     inkscape:persp3d-origin="372.04724 : 350.78739 : 1"
     inkscape:vp_z="744.09448 : 526.18109 : 1"
     inkscape:vp_y="0 : 1000 : 0"
     inkscape:vp_x="0 : 526.18109 : 1"
     sodipodi:type="inkscape:persp3d" /></defs>

<g
   id="g2724"
   transform="matrix(1.0418936,0,0,1.0418936,762.26612,94.389798)"
   style="opacity:1"><rect
     y="-577.20819"
     x="-731.61609"
     height="2412.9141"
     width="575.87457"
     id="rect2702"
     style="opacity:1;fill:#003399;fill-opacity:1;fill-rule:nonzero;stroke:none;stroke-width:45;stroke-linecap:square;stroke-miterlimit:4;stroke-dasharray:none;stroke-opacity:1" /><g
     id="g2704"
     transform="matrix(34.533525,0,0,34.533525,-443.6784,205.8556)"
     style="fill:#ffcc00"><use
       id="use2706"
       y="-6"
       xlink:href="#s"
       x="0"
       width="600"
       height="1500" /><use
       id="use2708"
       y="6"
       xlink:href="#s"
       x="0"
       width="600"
       height="1500" /><g
       id="g2710"><use
         id="use2712"
         x="-6"
         xlink:href="#s"
         y="0"
         width="600"
         height="1500" /><use
         id="use2714"
         transform="matrix(-0.809017,-0.5877853,0.5877853,-0.809017,-3,-5.1961524)"
         xlink:href="#s"
         x="0"
         y="0"
         width="600"
         height="1500" /><use
         id="use2716"
         transform="matrix(-0.809017,0.5877853,-0.5877853,-0.809017,-5.1961524,-3)"
         xlink:href="#s"
         x="0"
         y="0"
         width="600"
         height="1500" /><use
         id="use2718"
         transform="matrix(0.309017,0.9510565,-0.9510565,0.309017,-5.1961524,3)"
         xlink:href="#s"
         x="0"
         y="0"
         width="600"
         height="1500" /><use
         id="use2720"
         transform="matrix(0.309017,0.9510565,-0.9510565,0.309017,-3,5.1961524)"
         xlink:href="#s"
         x="0"
         y="0"
         width="600"
         height="1500" /></g><g
       id="use2722"
       transform="scale(-1,1)"><use
         height="1500"
         width="600"
         y="0"
         id="use2751"
         x="-6"
         xlink:href="#s" /><use
         height="1500"
         width="600"
         y="0"
         x="0"
         id="use2753"
         transform="matrix(-0.809017,-0.5877853,0.5877853,-0.809017,-3,-5.1961524)"
         xlink:href="#s" /><use
         height="1500"
         width="600"
         y="0"
         x="0"
         id="use2755"
         transform="matrix(-0.809017,0.5877853,-0.5877853,-0.809017,-5.1961524,-3)"
         xlink:href="#s" /><use
         height="1500"
         width="600"
         y="0"
         x="0"
         id="use2757"
         transform="matrix(0.309017,0.9510565,-0.9510565,0.309017,-5.1961524,3)"
         xlink:href="#s" /><use
         height="1500"
         width="600"
         y="0"
         x="0"
         id="use2759"
         transform="matrix(0.309017,0.9510565,-0.9510565,0.309017,-3,5.1961524)"
         xlink:href="#s" /></g></g></g></svg>