<?xml version="1.0" encoding="UTF-8"?>
<svg xmlns="http://www.w3.org/2000/svg" xmlns:xlink="http://www.w3.org/1999/xlink" width="41px" height="45px" viewBox="0 0 41 45" version="1.1">
<g id="surface1">
<path style=" stroke:none;fill-rule:nonzero;fill:rgb(100%,100%,100%);fill-opacity:1;" d="M 26.011719 8.964844 C 26.011719 8.617188 26.28125 8.335938 26.613281 8.335938 C 26.945312 8.335938 27.214844 8.617188 27.214844 8.964844 C 27.214844 9.308594 26.945312 9.589844 26.613281 9.589844 C 26.28125 9.589844 26.011719 9.308594 26.011719 8.964844 Z M 26.011719 8.964844 "/>
<path style=" stroke:none;fill-rule:nonzero;fill:rgb(100%,100%,100%);fill-opacity:1;" d="M 19.425781 8.964844 C 19.425781 8.617188 19.695312 8.335938 20.027344 8.335938 C 20.359375 8.335938 20.628906 8.617188 20.628906 8.964844 C 20.628906 9.308594 20.359375 9.589844 20.027344 9.589844 C 19.695312 9.589844 19.425781 9.308594 19.425781 8.964844 Z M 19.425781 8.964844 "/>
<path style=" stroke:none;fill-rule:nonzero;fill:rgb(95.294118%,76.470588%,24.313725%);fill-opacity:1;" d="M 10.496094 10.195312 L 10.917969 15.03125 C 10.355469 14.933594 9.3125 14.785156 8.078125 14.785156 C 7.554688 14.785156 6.996094 14.8125 6.425781 14.882812 C 4.621094 15.097656 3.234375 15.585938 2.558594 15.859375 L 2.128906 11.039062 C 2.648438 10.8125 4.101562 10.246094 6.027344 10.015625 C 7.992188 9.78125 9.855469 10.074219 10.496094 10.195312 Z M 26.304688 29.882812 C 26.261719 30.238281 25.957031 30.507812 25.59375 30.507812 L 21.664062 30.507812 C 21.3125 30.507812 21.015625 30.257812 20.960938 29.914062 L 20.058594 24.441406 C 20.023438 24.242188 20.078125 24.035156 20.210938 23.878906 C 20.339844 23.722656 20.535156 23.628906 20.738281 23.621094 L 26.238281 23.445312 C 26.246094 23.445312 26.253906 23.445312 26.261719 23.445312 C 26.460938 23.445312 26.648438 23.527344 26.785156 23.671875 C 26.925781 23.824219 26.992188 24.027344 26.96875 24.234375 Z M 31.976562 27.523438 C 31.625 27.792969 31.21875 27.898438 30.824219 27.820312 C 30.429688 27.746094 30.09375 27.492188 29.875 27.113281 C 29.640625 26.707031 29.566406 26.214844 29.664062 25.71875 C 29.761719 25.222656 30.023438 24.792969 30.394531 24.507812 C 30.667969 24.296875 30.980469 24.183594 31.292969 24.183594 C 31.375 24.183594 31.460938 24.191406 31.546875 24.210938 C 31.9375 24.285156 32.277344 24.539062 32.496094 24.917969 C 32.730469 25.324219 32.804688 25.816406 32.703125 26.3125 C 32.605469 26.808594 32.347656 27.238281 31.976562 27.523438 Z M 36.582031 34.421875 C 36.839844 34.601562 37.140625 34.75 37.472656 34.851562 C 37.777344 34.941406 38.082031 34.984375 38.375 34.984375 C 39.183594 34.984375 39.894531 34.648438 40.21875 34.085938 C 40.394531 34.652344 40.382812 35.421875 40.308594 35.753906 C 40.21875 36.144531 39.796875 37.667969 39.636719 38.242188 C 39.359375 38.253906 38.804688 38.253906 37.972656 38.144531 L 38.582031 35.867188 C 38.605469 35.777344 38.550781 35.6875 38.464844 35.664062 C 38.375 35.644531 38.285156 35.695312 38.261719 35.78125 L 37.644531 38.097656 C 36.75 37.933594 36.003906 37.542969 35.660156 37.339844 L 36.074219 35.898438 Z M 9.0625 15.472656 L 9.0625 16.527344 C 9.0625 17.289062 8.433594 17.910156 7.664062 17.910156 L 5.640625 17.910156 C 4.871094 17.910156 4.242188 17.292969 4.242188 16.527344 L 4.242188 15.980469 C 4.875 15.804688 5.644531 15.632812 6.507812 15.53125 C 7.417969 15.421875 8.304688 15.425781 9.0625 15.472656 Z M 9.0625 15.472656 "/>
<path style=" stroke:none;fill-rule:nonzero;fill:rgb(52.941176%,32.54902%,21.176471%);fill-opacity:1;" d="M 0.710938 9.613281 L 1.261719 9.503906 C 1.28125 9.5 1.296875 9.503906 1.3125 9.511719 C 1.328125 9.523438 1.335938 9.539062 1.335938 9.558594 L 1.433594 10.644531 L 1.429688 10.644531 L 1.949219 16.609375 C 1.945312 16.613281 1.941406 16.613281 1.9375 16.613281 L 1.300781 16.714844 C 1.296875 16.714844 1.289062 16.714844 1.28125 16.707031 C 1.269531 16.699219 1.269531 16.691406 1.269531 16.691406 L 0.660156 9.679688 C 0.65625 9.648438 0.679688 9.621094 0.710938 9.613281 Z M 0.710938 9.613281 "/>
<path style=" stroke:none;fill-rule:nonzero;fill:rgb(95.294118%,76.470588%,24.313725%);fill-opacity:1;" d="M 31.8125 32.027344 L 20.152344 32.027344 C 18.972656 29.589844 18.40625 23.511719 18.3125 22.429688 C 21.476562 21.261719 26.6875 21.421875 26.742188 21.421875 L 26.835938 21.421875 C 30.109375 21.421875 33.503906 22.335938 34.394531 22.59375 L 34.324219 23.207031 C 34.070312 23.546875 33.933594 23.960938 33.933594 24.382812 C 33.933594 24.894531 34.128906 25.359375 34.449219 25.710938 Z M 27.078125 23.40625 C 26.859375 23.171875 26.546875 23.042969 26.222656 23.050781 L 20.726562 23.230469 C 20.40625 23.238281 20.109375 23.386719 19.90625 23.628906 C 19.703125 23.875 19.617188 24.195312 19.667969 24.503906 L 20.570312 29.976562 C 20.65625 30.511719 21.121094 30.902344 21.664062 30.898438 L 25.59375 30.898438 C 26.160156 30.898438 26.632812 30.480469 26.699219 29.925781 L 27.363281 24.277344 C 27.398438 23.960938 27.296875 23.640625 27.078125 23.40625 Z M 33.351562 24.433594 C 32.988281 23.800781 32.414062 23.382812 31.738281 23.25 C 31.058594 23.117188 30.367188 23.289062 29.785156 23.734375 C 29.226562 24.164062 28.839844 24.800781 28.695312 25.527344 C 28.550781 26.253906 28.664062 26.992188 29.015625 27.597656 C 29.378906 28.230469 29.953125 28.648438 30.632812 28.78125 C 30.78125 28.8125 30.929688 28.828125 31.082031 28.828125 C 31.609375 28.828125 32.128906 28.644531 32.582031 28.296875 C 33.140625 27.867188 33.527344 27.230469 33.671875 26.503906 C 33.820312 25.777344 33.703125 25.042969 33.351562 24.433594 Z M 27.164062 2.324219 L 27.152344 2.324219 C 26.621094 2.355469 26.09375 2.398438 25.566406 2.449219 L 25.558594 2.292969 C 25.558594 1.390625 26.300781 0.652344 27.214844 0.652344 C 28.128906 0.652344 28.871094 1.390625 28.871094 2.292969 C 28.871094 2.316406 28.871094 2.335938 28.871094 2.355469 C 27.890625 2.308594 27.230469 2.320312 27.164062 2.324219 Z M 9.113281 27.914062 C 8.90625 27.734375 8.671875 27.585938 8.421875 27.476562 L 8.753906 32.210938 C 8.988281 32.066406 9.199219 31.890625 9.378906 31.683594 C 9.789062 31.214844 10.035156 30.601562 10.035156 29.933594 C 10.035156 29.128906 9.679688 28.40625 9.113281 27.914062 Z M 9.113281 27.914062 "/>
<path style=" stroke:none;fill-rule:nonzero;fill:rgb(52.941176%,32.54902%,21.176471%);fill-opacity:1;" d="M 12.316406 15.777344 L 11.679688 15.875 C 11.675781 15.875 11.667969 15.878906 11.660156 15.871094 C 11.648438 15.863281 11.648438 15.855469 11.648438 15.851562 L 11.039062 8.839844 C 11.035156 8.808594 11.058594 8.78125 11.089844 8.777344 L 11.644531 8.664062 C 11.660156 8.660156 11.679688 8.664062 11.691406 8.675781 C 11.707031 8.6875 11.714844 8.703125 11.71875 8.71875 L 12.339844 15.75 C 12.34375 15.761719 12.332031 15.773438 12.316406 15.777344 Z M 12.316406 15.777344 "/>
<path style=" stroke:none;fill-rule:nonzero;fill:rgb(95.294118%,76.470588%,24.313725%);fill-opacity:1;" d="M 37.78125 14.292969 C 36.535156 14.292969 35.523438 12.921875 35.523438 11.234375 C 35.523438 9.550781 36.535156 8.179688 37.78125 8.179688 C 38 8.179688 38.214844 8.222656 38.417969 8.300781 L 38.46875 8.355469 L 38.535156 8.355469 C 39.410156 8.777344 40.035156 9.910156 40.035156 11.234375 C 40.035156 12.921875 39.023438 14.292969 37.78125 14.292969 Z M 37.78125 14.292969 "/>
<path style=" stroke:none;fill-rule:nonzero;fill:rgb(52.941176%,32.54902%,21.176471%);fill-opacity:1;" d="M 17.941406 25.167969 C 18.035156 25.914062 18.152344 26.734375 18.292969 27.566406 C 18.082031 27.695312 17.835938 27.765625 17.585938 27.765625 C 16.847656 27.765625 16.25 27.171875 16.25 26.441406 C 16.25 25.714844 16.847656 25.121094 17.585938 25.121094 C 17.707031 25.121094 17.824219 25.136719 17.941406 25.167969 Z M 17.941406 25.167969 "/>
<path style=" stroke:none;fill-rule:nonzero;fill:rgb(95.294118%,76.470588%,24.313725%);fill-opacity:1;" d="M 32.886719 11.078125 C 32.886719 13.210938 34.640625 14.945312 36.792969 14.945312 C 36.980469 14.945312 37.167969 14.933594 37.351562 14.90625 C 37.410156 14.917969 37.46875 14.925781 37.527344 14.933594 L 37.527344 16.804688 C 37.527344 16.960938 37.488281 17.117188 37.417969 17.253906 C 37.398438 17.285156 37.378906 17.316406 37.359375 17.347656 L 32.699219 16.558594 L 18.144531 17.394531 C 17.871094 17.410156 17.597656 17.328125 17.382812 17.160156 C 17.375 17.113281 17.371094 17.058594 17.371094 17.007812 L 17.371094 6.953125 L 17.367188 6.933594 C 17.367188 6.917969 17.324219 6.402344 17.894531 5.738281 C 18.800781 4.683594 21.148438 3.347656 27.1875 2.976562 C 27.359375 2.972656 31.382812 2.90625 34.589844 4.003906 C 37.21875 4.902344 37.511719 6.671875 37.535156 7.28125 C 37.289062 7.234375 37.042969 7.210938 36.792969 7.210938 C 34.640625 7.210938 32.886719 8.945312 32.886719 11.078125 Z M 19.648438 14.738281 C 19.652344 14.777344 19.6875 14.804688 19.726562 14.804688 L 26.980469 14.34375 C 27.015625 14.34375 27.046875 14.316406 27.050781 14.28125 L 27.285156 12.605469 C 27.292969 12.558594 27.253906 12.515625 27.207031 12.519531 L 19.503906 13.085938 C 19.460938 13.089844 19.429688 13.128906 19.433594 13.167969 Z M 20.457031 7.628906 C 19.347656 7.628906 18.453125 8.5625 18.453125 9.714844 C 18.453125 10.867188 19.347656 11.800781 20.457031 11.800781 C 21.5625 11.800781 22.457031 10.867188 22.457031 9.714844 C 22.457031 8.5625 21.5625 7.628906 20.457031 7.628906 Z M 27.042969 7.628906 C 25.9375 7.628906 25.039062 8.5625 25.039062 9.714844 C 25.039062 10.867188 25.9375 11.800781 27.042969 11.800781 C 28.148438 11.800781 29.046875 10.867188 29.046875 9.714844 C 29.046875 8.5625 28.148438 7.628906 27.042969 7.628906 Z M 27.042969 7.628906 "/>
<path style=" stroke:none;fill-rule:nonzero;fill:rgb(85.882353%,67.45098%,27.058824%);fill-opacity:1;" d="M 32.46875 3.445312 L 32.699219 16.558594 L 37.359375 17.347656 L 37.414062 17.253906 C 37.488281 17.117188 37.527344 16.960938 37.527344 16.804688 L 37.527344 14.933594 L 37.351562 14.90625 C 37.167969 14.933594 36.980469 14.945312 36.792969 14.945312 C 34.640625 14.945312 32.886719 13.210938 32.886719 11.078125 C 32.886719 8.945312 34.640625 7.210938 36.792969 7.210938 C 37.042969 7.210938 37.289062 7.234375 37.535156 7.28125 C 37.511719 6.671875 37.214844 4.902344 34.585938 4.003906 C 33.902344 3.765625 33.179688 3.585938 32.46875 3.445312 Z M 32.46875 3.445312 "/>
<path style=" stroke:none;fill-rule:nonzero;fill:rgb(95.294118%,76.470588%,24.313725%);fill-opacity:1;" d="M 5.308594 22.09375 L 5.3125 22.191406 L 6.078125 33.027344 L 6.101562 33.371094 L 6.28125 35.90625 C 6.332031 36.652344 6.984375 37.214844 7.738281 37.160156 C 8.488281 37.109375 9.054688 36.460938 9.003906 35.71875 L 8.832031 33.300781 L 8.804688 32.929688 L 8.035156 22.003906 C 8.011719 21.644531 7.84375 21.3125 7.566406 21.078125 C 7.292969 20.839844 6.941406 20.722656 6.578125 20.75 C 5.867188 20.796875 5.308594 21.390625 5.308594 22.09375 Z M 5.308594 22.09375 "/>
<path style=" stroke:none;fill-rule:nonzero;fill:rgb(100%,100%,100%);fill-opacity:1;" d="M 5.308594 22.09375 L 5.3125 22.191406 L 6.078125 33.027344 L 6.101562 33.371094 L 6.28125 35.90625 C 6.304688 36.277344 6.480469 36.601562 6.742188 36.828125 C 6.621094 36.644531 6.546875 36.429688 6.53125 36.195312 L 6.351562 33.660156 L 6.328125 33.316406 L 5.5625 22.480469 C 5.558594 22.449219 5.558594 22.414062 5.558594 22.382812 C 5.558594 21.679688 6.117188 21.085938 6.828125 21.039062 C 7.191406 21.011719 7.542969 21.128906 7.816406 21.363281 C 7.820312 21.367188 7.824219 21.367188 7.824219 21.371094 C 7.753906 21.261719 7.667969 21.160156 7.566406 21.078125 C 7.292969 20.839844 6.941406 20.722656 6.578125 20.75 C 5.867188 20.796875 5.308594 21.390625 5.308594 22.09375 Z M 5.308594 22.09375 "/>
<path style=" stroke:none;fill-rule:nonzero;fill:rgb(52.941176%,32.54902%,21.176471%);fill-opacity:1;" d="M 28.089844 18.816406 L 28.089844 20.808594 C 27.671875 20.785156 27.253906 20.769531 26.835938 20.769531 L 26.757812 20.769531 C 26.695312 20.765625 26.425781 20.757812 26.007812 20.757812 L 26.007812 18.835938 L 27.039062 18.863281 L 27.050781 18.863281 Z M 28.089844 18.816406 "/>
<path style=" stroke:none;fill-rule:nonzero;fill:rgb(95.294118%,76.470588%,24.313725%);fill-opacity:1;" d="M 25.75 39.71875 C 29.113281 39.71875 32.148438 41.480469 33.792969 44.351562 L 17.710938 44.351562 C 19.355469 41.480469 22.386719 39.71875 25.75 39.71875 Z M 25.75 39.71875 "/>
<path style=" stroke:none;fill-rule:nonzero;fill:rgb(52.941176%,32.54902%,21.176471%);fill-opacity:1;" d="M 10.621094 29.234375 C 13.414062 29.003906 15.003906 27.847656 15.722656 27.15625 C 16.011719 27.894531 16.738281 28.417969 17.585938 28.417969 L 17.59375 28.417969 C 17.070312 29.109375 16.046875 30.195312 14.425781 30.878906 C 12.628906 31.636719 11.042969 31.613281 10.277344 31.539062 C 10.542969 31.0625 10.695312 30.515625 10.695312 29.933594 C 10.695312 29.699219 10.671875 29.464844 10.621094 29.234375 Z M 10.621094 29.234375 "/>
<path style=" stroke:none;fill-rule:nonzero;fill:rgb(95.294118%,76.470588%,24.313725%);fill-opacity:1;" d="M 6.53125 20.097656 C 6.328125 20.109375 6.132812 20.15625 5.941406 20.226562 L 5.941406 18.566406 L 7.320312 18.566406 L 7.320312 20.195312 C 7.070312 20.113281 6.804688 20.078125 6.53125 20.097656 Z M 5.949219 9.371094 C 4.5625 9.535156 3.421875 9.863281 2.660156 10.128906 L 2.585938 8.746094 C 3.011719 8.542969 4.179688 8.058594 5.855469 7.953125 C 7.511719 7.851562 8.824219 8.0625 9.34375 8.167969 L 9.34375 9.367188 C 8.441406 9.273438 7.222656 9.214844 5.949219 9.371094 Z M 36.546875 7.875 C 35.554688 8.46875 34.863281 9.75 34.863281 11.234375 C 34.863281 12.449219 35.324219 13.527344 36.03125 14.203125 C 34.609375 13.863281 33.546875 12.59375 33.546875 11.078125 C 33.546875 9.386719 34.871094 8 36.546875 7.875 Z M 15.125 11.890625 C 15.125 10.625 15.800781 9.558594 16.710938 9.285156 L 16.710938 14.496094 C 15.800781 14.222656 15.125 13.15625 15.125 11.890625 Z M 15.125 11.890625 "/>
<path style=" stroke:none;fill-rule:nonzero;fill:rgb(52.941176%,32.54902%,21.176471%);fill-opacity:1;" d="M 34.589844 24.382812 C 34.589844 25.113281 35.191406 25.707031 35.925781 25.707031 C 36.664062 25.707031 37.265625 25.113281 37.265625 24.382812 C 37.265625 23.652344 36.664062 23.058594 35.925781 23.058594 C 35.191406 23.058594 34.589844 23.652344 34.589844 24.382812 Z M 34.589844 24.382812 "/>
<path style=" stroke:none;fill-rule:nonzero;fill:rgb(52.941176%,32.54902%,21.176471%);fill-opacity:1;" d="M 22.714844 39.539062 L 22.714844 32.679688 L 24.691406 32.679688 L 24.691406 39.121094 C 24.019531 39.195312 23.359375 39.332031 22.714844 39.539062 Z M 27.195312 39.171875 L 27.195312 32.679688 L 29.171875 32.679688 L 29.171875 39.667969 C 28.53125 39.433594 27.867188 39.269531 27.195312 39.171875 Z M 27.195312 39.171875 "/>
<path style=" stroke:none;fill-rule:nonzero;fill:rgb(95.294118%,76.470588%,24.313725%);fill-opacity:1;" d="M 35.253906 32.480469 C 35.375 32.453125 35.515625 32.484375 35.636719 32.527344 C 35.539062 33.007812 35.703125 33.511719 36.050781 33.9375 L 35.515625 35.496094 C 35.464844 35.496094 35.394531 35.488281 35.308594 35.480469 C 35.097656 35.453125 34.824219 35.25 34.707031 35.132812 C 34.71875 35.011719 34.785156 34.714844 34.976562 34.035156 C 35.148438 33.414062 35.222656 32.800781 35.253906 32.480469 Z M 35.253906 32.480469 "/>
<path style=" stroke:none;fill-rule:nonzero;fill:rgb(52.941176%,32.54902%,21.176471%);fill-opacity:1;" d="M 38.355469 31.957031 C 39.28125 32.234375 39.90625 32.988281 39.71875 33.601562 C 39.53125 34.21875 38.589844 34.503906 37.664062 34.226562 C 36.738281 33.949219 36.113281 33.195312 36.296875 32.582031 C 36.484375 31.964844 37.425781 31.679688 38.355469 31.957031 Z M 37.789062 25.089844 C 38.421875 25.835938 39.546875 27.363281 39.75 28.976562 C 39.925781 30.359375 39.761719 31.332031 39.605469 31.886719 C 39.3125 31.648438 38.953125 31.453125 38.542969 31.332031 C 38.234375 31.242188 37.925781 31.199219 37.632812 31.199219 C 37.710938 30.214844 37.726562 27.960938 36.53125 26.265625 C 37.109375 26.082031 37.574219 25.648438 37.789062 25.089844 Z M 37.789062 25.089844 "/>
<path style=" stroke:none;fill-rule:nonzero;fill:rgb(100%,100%,100%);fill-opacity:1;" d="M 29.285156 9.996094 C 29.285156 11.148438 28.386719 12.082031 27.28125 12.082031 C 26.625 12.082031 26.039062 11.75 25.671875 11.238281 C 26.03125 11.585938 26.511719 11.800781 27.042969 11.800781 C 28.148438 11.800781 29.046875 10.867188 29.046875 9.714844 C 29.046875 9.25 28.898438 8.820312 28.652344 8.472656 C 29.042969 8.851562 29.285156 9.394531 29.285156 9.996094 Z M 29.285156 9.996094 "/>
<path style=" stroke:none;fill-rule:nonzero;fill:rgb(100%,100%,100%);fill-opacity:1;" d="M 22.699219 9.996094 C 22.699219 11.148438 21.800781 12.082031 20.695312 12.082031 C 20.035156 12.082031 19.453125 11.75 19.085938 11.238281 C 19.445312 11.585938 19.925781 11.800781 20.457031 11.800781 C 21.5625 11.800781 22.457031 10.867188 22.457031 9.714844 C 22.457031 9.25 22.3125 8.820312 22.0625 8.472656 C 22.453125 8.851562 22.699219 9.394531 22.699219 9.996094 Z M 22.699219 9.996094 "/>
<path style=" stroke:none;fill-rule:nonzero;fill:rgb(100%,100%,100%);fill-opacity:1;" d="M 17.941406 25.167969 L 17.972656 25.40625 L 17.824219 25.398438 C 17.089844 25.398438 16.488281 25.992188 16.488281 26.722656 C 16.488281 26.980469 16.566406 27.226562 16.695312 27.429688 C 16.421875 27.1875 16.25 26.835938 16.25 26.441406 C 16.25 25.714844 16.847656 25.121094 17.585938 25.121094 C 17.707031 25.121094 17.824219 25.136719 17.941406 25.167969 Z M 27.527344 12.882812 L 27.289062 14.5625 C 27.285156 14.59375 27.257812 14.621094 27.222656 14.625 L 19.964844 15.082031 C 19.925781 15.085938 19.894531 15.058594 19.886719 15.019531 L 19.859375 14.792969 L 26.980469 14.34375 C 27.015625 14.34375 27.046875 14.316406 27.050781 14.28125 L 27.257812 12.8125 L 27.445312 12.800781 C 27.46875 12.796875 27.492188 12.808594 27.507812 12.824219 C 27.523438 12.839844 27.527344 12.863281 27.527344 12.882812 Z M 30.175781 27.492188 C 30.058594 27.386719 29.957031 27.257812 29.875 27.113281 C 29.640625 26.707031 29.566406 26.214844 29.664062 25.71875 C 29.761719 25.222656 30.023438 24.792969 30.390625 24.507812 C 30.667969 24.296875 30.980469 24.183594 31.292969 24.183594 C 31.375 24.183594 31.460938 24.191406 31.542969 24.210938 C 31.902344 24.28125 32.214844 24.496094 32.433594 24.820312 C 32.246094 24.648438 32.027344 24.535156 31.785156 24.488281 C 31.703125 24.472656 31.617188 24.464844 31.53125 24.464844 C 31.21875 24.464844 30.90625 24.574219 30.632812 24.789062 C 30.261719 25.074219 30.003906 25.503906 29.90625 25.996094 C 29.804688 26.492188 29.878906 26.988281 30.113281 27.390625 C 30.132812 27.425781 30.15625 27.460938 30.175781 27.492188 Z M 26.007812 20.757812 L 26.007812 18.835938 L 27.039062 18.863281 L 27.050781 18.863281 L 28.089844 18.816406 L 28.089844 19.105469 L 27.289062 19.140625 L 27.277344 19.144531 L 26.25 19.113281 L 26.25 20.761719 Z M 36.03125 14.203125 L 36.007812 14.199219 L 35.9375 14.109375 Z M 21.199219 30.195312 C 21.210938 30.261719 21.230469 30.324219 21.257812 30.382812 C 21.105469 30.277344 20.992188 30.113281 20.960938 29.914062 L 20.058594 24.441406 C 20.023438 24.242188 20.078125 24.035156 20.210938 23.878906 C 20.339844 23.722656 20.535156 23.628906 20.738281 23.621094 L 26.238281 23.445312 C 26.246094 23.445312 26.253906 23.445312 26.261719 23.445312 C 26.460938 23.445312 26.648438 23.527344 26.785156 23.671875 C 26.835938 23.726562 26.875 23.785156 26.90625 23.847656 C 26.785156 23.769531 26.644531 23.722656 26.5 23.722656 C 26.492188 23.722656 26.484375 23.722656 26.476562 23.722656 L 20.976562 23.902344 C 20.773438 23.910156 20.582031 24.003906 20.449219 24.160156 C 20.320312 24.316406 20.265625 24.523438 20.296875 24.722656 Z M 5.945312 20.226562 L 5.945312 18.566406 L 7.320312 18.566406 L 7.320312 18.84375 L 6.183594 18.84375 L 6.183594 20.152344 C 6.101562 20.175781 6.023438 20.199219 5.945312 20.226562 Z M 27.195312 39.171875 L 27.195312 32.679688 L 29.171875 32.679688 L 29.171875 32.960938 L 27.433594 32.960938 L 27.433594 39.210938 Z M 6.09375 8.234375 C 4.421875 8.339844 3.25 8.824219 2.828125 9.023438 L 2.882812 10.054688 L 2.660156 10.128906 L 2.585938 8.746094 C 3.011719 8.542969 4.179688 8.058594 5.855469 7.953125 C 7.511719 7.851562 8.824219 8.0625 9.34375 8.167969 L 9.34375 8.402344 C 8.71875 8.292969 7.539062 8.144531 6.09375 8.234375 Z M 11.328125 9.054688 C 11.296875 9.0625 11.277344 9.089844 11.28125 9.121094 L 11.863281 15.847656 L 11.679688 15.875 C 11.675781 15.875 11.667969 15.878906 11.660156 15.871094 C 11.648438 15.863281 11.648438 15.855469 11.648438 15.851562 L 11.039062 8.839844 C 11.035156 8.808594 11.058594 8.78125 11.089844 8.777344 L 11.644531 8.664062 C 11.660156 8.660156 11.679688 8.664062 11.691406 8.675781 C 11.707031 8.6875 11.714844 8.703125 11.71875 8.71875 L 11.738281 8.972656 Z M 22.714844 39.539062 L 22.714844 32.679688 L 24.691406 32.679688 L 24.691406 32.960938 L 22.957031 32.960938 L 22.957031 39.464844 Z M 15.367188 12.167969 C 15.367188 12.886719 15.582031 13.539062 15.933594 14.019531 C 15.441406 13.53125 15.125 12.757812 15.125 11.890625 C 15.125 10.625 15.800781 9.558594 16.710938 9.285156 L 16.710938 9.660156 C 15.921875 10.035156 15.367188 11.019531 15.367188 12.167969 Z M 37.789062 25.089844 L 38.027344 25.378906 C 37.808594 25.929688 37.347656 26.363281 36.773438 26.546875 C 37.867188 28.101562 37.945312 30.125 37.890625 31.210938 C 37.804688 31.203125 37.71875 31.199219 37.632812 31.199219 C 37.710938 30.214844 37.726562 27.960938 36.53125 26.265625 C 37.109375 26.082031 37.574219 25.648438 37.789062 25.089844 Z M 25.75 39.71875 C 28.585938 39.71875 31.183594 40.96875 32.917969 43.082031 C 31.1875 41.140625 28.695312 40 25.992188 40 C 22.738281 40 19.792969 41.648438 18.117188 44.351562 L 17.710938 44.351562 C 19.355469 41.480469 22.386719 39.71875 25.75 39.71875 Z M 35.253906 32.480469 C 35.375 32.453125 35.515625 32.484375 35.636719 32.527344 C 35.621094 32.601562 35.613281 32.675781 35.609375 32.75 C 35.570312 32.75 35.53125 32.75 35.492188 32.761719 C 35.464844 33.078125 35.390625 33.691406 35.214844 34.316406 C 35.058594 34.878906 34.984375 35.175781 34.957031 35.332031 C 34.855469 35.265625 34.761719 35.191406 34.703125 35.132812 C 34.71875 35.011719 34.785156 34.714844 34.976562 34.035156 C 35.148438 33.414062 35.222656 32.800781 35.253906 32.480469 Z M 10.621094 29.234375 C 13.414062 29.003906 15.003906 27.847656 15.722656 27.15625 C 15.769531 27.273438 15.832031 27.386719 15.898438 27.496094 C 15.152344 28.195312 13.574219 29.289062 10.859375 29.515625 C 10.910156 29.738281 10.9375 29.972656 10.9375 30.210938 C 10.9375 30.695312 10.832031 31.152344 10.644531 31.566406 C 10.507812 31.558594 10.382812 31.550781 10.277344 31.539062 C 10.542969 31.0625 10.695312 30.515625 10.695312 29.933594 C 10.695312 29.691406 10.667969 29.460938 10.621094 29.234375 Z M 0.710938 9.613281 L 1.261719 9.503906 C 1.28125 9.5 1.296875 9.503906 1.3125 9.511719 C 1.328125 9.523438 1.335938 9.539062 1.335938 9.558594 L 1.359375 9.808594 L 0.949219 9.894531 C 0.917969 9.898438 0.898438 9.929688 0.898438 9.960938 L 1.484375 16.683594 L 1.300781 16.714844 C 1.296875 16.714844 1.289062 16.714844 1.28125 16.707031 C 1.269531 16.699219 1.269531 16.691406 1.269531 16.691406 L 0.660156 9.679688 C 0.65625 9.648438 0.679688 9.621094 0.710938 9.613281 Z M 6.027344 10.015625 C 7.992188 9.78125 9.855469 10.074219 10.496094 10.195312 L 10.515625 10.4375 C 9.734375 10.304688 8.039062 10.085938 6.265625 10.296875 C 4.34375 10.527344 2.886719 11.09375 2.371094 11.316406 L 2.765625 15.78125 L 2.558594 15.863281 L 2.128906 11.039062 C 2.648438 10.8125 4.101562 10.246094 6.027344 10.015625 Z M 9.0625 15.472656 L 9.0625 15.742188 C 8.359375 15.707031 7.5625 15.710938 6.746094 15.808594 C 5.882812 15.914062 5.113281 16.085938 4.484375 16.261719 L 4.484375 16.808594 C 4.484375 17.082031 4.566406 17.335938 4.703125 17.554688 C 4.421875 17.300781 4.242188 16.933594 4.242188 16.527344 L 4.242188 15.980469 C 4.875 15.804688 5.644531 15.632812 6.507812 15.53125 C 7.417969 15.421875 8.304688 15.425781 9.0625 15.472656 Z M 36.582031 34.421875 C 36.839844 34.601562 37.140625 34.75 37.472656 34.851562 C 37.777344 34.941406 38.082031 34.984375 38.375 34.984375 C 39.183594 34.984375 39.894531 34.648438 40.21875 34.085938 C 40.265625 34.234375 40.300781 34.398438 40.320312 34.5625 C 39.957031 35.007812 39.324219 35.261719 38.613281 35.261719 C 38.324219 35.261719 38.019531 35.222656 37.714844 35.128906 C 37.378906 35.03125 37.078125 34.882812 36.820312 34.703125 L 36.3125 36.179688 L 35.9375 37.496094 C 35.84375 37.445312 35.753906 37.394531 35.664062 37.339844 L 36.074219 35.898438 Z M 36.296875 32.582031 C 36.484375 31.964844 37.425781 31.679688 38.355469 31.957031 C 38.878906 32.113281 39.308594 32.425781 39.546875 32.777344 C 39.304688 32.542969 38.972656 32.351562 38.59375 32.238281 C 37.667969 31.960938 36.726562 32.246094 36.539062 32.859375 C 36.457031 33.125 36.527344 33.417969 36.710938 33.6875 C 36.359375 33.355469 36.1875 32.945312 36.296875 32.582031 Z M 38.703125 35.945312 C 38.792969 35.96875 38.84375 36.058594 38.820312 36.144531 L 38.277344 38.183594 L 37.972656 38.144531 L 38.550781 35.984375 C 38.589844 35.949219 38.648438 35.929688 38.703125 35.945312 Z M 34.59375 24.382812 C 34.59375 23.652344 35.191406 23.058594 35.929688 23.058594 C 36.402344 23.058594 36.820312 23.304688 37.054688 23.675781 C 36.820312 23.464844 36.507812 23.339844 36.167969 23.339844 C 35.429688 23.339844 34.832031 23.933594 34.832031 24.660156 C 34.832031 24.921875 34.910156 25.164062 35.039062 25.367188 C 34.765625 25.125 34.59375 24.773438 34.59375 24.382812 Z M 33.546875 11.078125 C 33.546875 9.386719 34.871094 8 36.546875 7.875 C 36.34375 7.996094 36.15625 8.144531 35.980469 8.320312 C 34.707031 8.753906 33.785156 9.949219 33.785156 11.359375 C 33.785156 12.085938 34.03125 12.757812 34.445312 13.296875 C 33.890625 12.71875 33.546875 11.9375 33.546875 11.078125 Z M 18.3125 22.429688 C 21.476562 21.261719 26.6875 21.421875 26.742188 21.421875 L 26.835938 21.421875 C 30.109375 21.421875 33.503906 22.335938 34.394531 22.59375 L 34.371094 22.800781 C 33.199219 22.476562 30.085938 21.703125 27.078125 21.703125 L 26.980469 21.703125 C 26.929688 21.699219 21.714844 21.539062 18.550781 22.707031 C 18.640625 23.75 19.175781 29.4375 20.265625 32.027344 L 20.152344 32.027344 C 18.972656 29.589844 18.40625 23.511719 18.3125 22.429688 Z M 38.777344 8.636719 L 38.707031 8.632812 L 38.65625 8.582031 C 38.453125 8.5 38.242188 8.457031 38.019531 8.457031 C 36.777344 8.457031 35.761719 9.828125 35.761719 11.515625 C 35.761719 12.367188 36.019531 13.136719 36.433594 13.691406 C 35.882812 13.132812 35.523438 12.238281 35.523438 11.234375 C 35.523438 9.550781 36.535156 8.179688 37.78125 8.179688 C 38 8.179688 38.214844 8.222656 38.417969 8.300781 L 38.46875 8.355469 L 38.535156 8.355469 C 38.851562 8.507812 39.132812 8.75 39.363281 9.0625 C 39.1875 8.882812 38.988281 8.738281 38.777344 8.636719 Z M 34.828125 4.28125 C 31.625 3.183594 27.601562 3.253906 27.425781 3.253906 C 21.386719 3.628906 19.039062 4.964844 18.132812 6.019531 C 17.5625 6.683594 17.605469 7.195312 17.609375 7.214844 L 17.609375 17.289062 C 17.609375 17.289062 17.609375 17.292969 17.609375 17.296875 C 17.53125 17.261719 17.453125 17.214844 17.382812 17.160156 C 17.375 17.109375 17.371094 17.058594 17.371094 17.007812 L 17.371094 6.953125 L 17.367188 6.933594 C 17.367188 6.917969 17.320312 6.402344 17.894531 5.738281 C 18.800781 4.683594 21.148438 3.347656 27.1875 2.976562 C 27.359375 2.972656 31.382812 2.90625 34.585938 4.003906 C 35.742188 4.398438 36.445312 4.960938 36.875 5.519531 C 36.4375 5.058594 35.789062 4.609375 34.828125 4.28125 Z M 27.457031 0.933594 C 26.59375 0.933594 25.882812 1.59375 25.804688 2.429688 L 25.566406 2.453125 C 25.5625 2.398438 25.558594 2.347656 25.558594 2.296875 C 25.558594 1.390625 26.300781 0.65625 27.214844 0.65625 C 27.789062 0.65625 28.292969 0.941406 28.589844 1.382812 C 28.292969 1.105469 27.894531 0.933594 27.457031 0.933594 Z M 27.457031 0.933594 "/>
<path style=" stroke:none;fill-rule:nonzero;fill:rgb(10.196078%,10.196078%,10.196078%);fill-opacity:1;" d="M 22.191406 28.824219 C 22.191406 28.933594 22.277344 29.019531 22.386719 29.019531 C 22.492188 29.019531 22.582031 28.933594 22.582031 28.824219 C 22.582031 28.71875 22.492188 28.632812 22.386719 28.632812 C 22.277344 28.632812 22.191406 28.71875 22.191406 28.824219 Z M 22.191406 28.824219 "/>
<path style=" stroke:none;fill-rule:nonzero;fill:rgb(95.294118%,76.470588%,24.313725%);fill-opacity:1;" d="M 4.621094 29.933594 C 4.621094 30.628906 4.890625 31.265625 5.332031 31.742188 C 5.535156 31.960938 5.707031 32.707031 6.4375 31.972656 L 6.078125 28.015625 C 5.707031 27.558594 5.238281 27.792969 5.070312 28.035156 C 4.769531 28.464844 4.621094 29.371094 4.621094 29.933594 Z M 4.621094 29.933594 "/>
<path style=" stroke:none;fill-rule:nonzero;fill:rgb(14.117647%,14.117647%,16.862745%);fill-opacity:1;" d="M 35.925781 26.355469 C 37.027344 26.355469 37.921875 25.46875 37.921875 24.378906 C 37.921875 23.289062 37.027344 22.402344 35.925781 22.402344 C 34.828125 22.402344 33.933594 23.289062 33.933594 24.378906 C 33.933594 25.46875 34.828125 26.355469 35.925781 26.355469 Z M 35.925781 23.058594 C 36.664062 23.058594 37.265625 23.652344 37.265625 24.378906 C 37.265625 25.109375 36.664062 25.703125 35.925781 25.703125 C 35.191406 25.703125 34.589844 25.109375 34.589844 24.378906 C 34.589844 23.652344 35.191406 23.058594 35.925781 23.058594 Z M 17.585938 28.417969 C 18.050781 28.417969 18.503906 28.253906 18.863281 27.960938 L 18.441406 27.457031 C 18.199219 27.65625 17.898438 27.765625 17.585938 27.765625 C 16.847656 27.765625 16.25 27.171875 16.25 26.441406 C 16.25 25.710938 16.847656 25.117188 17.585938 25.117188 C 17.769531 25.117188 17.945312 25.152344 18.113281 25.226562 L 18.375 24.625 C 18.125 24.519531 17.859375 24.464844 17.585938 24.464844 C 16.484375 24.464844 15.589844 25.351562 15.589844 26.441406 C 15.589844 27.53125 16.484375 28.417969 17.585938 28.417969 Z M 31.082031 28.824219 C 31.609375 28.824219 32.128906 28.644531 32.582031 28.292969 C 33.140625 27.863281 33.527344 27.226562 33.671875 26.5 C 33.820312 25.773438 33.703125 25.039062 33.351562 24.429688 C 32.988281 23.800781 32.414062 23.378906 31.738281 23.246094 C 31.058594 23.113281 30.367188 23.285156 29.785156 23.734375 C 29.226562 24.164062 28.839844 24.800781 28.695312 25.527344 C 28.550781 26.253906 28.664062 26.988281 29.015625 27.597656 C 29.378906 28.226562 29.953125 28.648438 30.632812 28.78125 C 30.78125 28.808594 30.929688 28.824219 31.082031 28.824219 Z M 31.292969 24.183594 C 31.375 24.183594 31.460938 24.191406 31.546875 24.207031 C 31.9375 24.285156 32.277344 24.535156 32.496094 24.917969 C 32.730469 25.320312 32.804688 25.816406 32.703125 26.3125 C 32.605469 26.808594 32.347656 27.238281 31.976562 27.523438 C 31.625 27.792969 31.21875 27.898438 30.824219 27.820312 C 30.429688 27.742188 30.09375 27.492188 29.875 27.109375 C 29.640625 26.707031 29.566406 26.210938 29.664062 25.71875 C 29.761719 25.222656 30.023438 24.792969 30.394531 24.507812 C 30.667969 24.292969 30.980469 24.183594 31.292969 24.183594 Z M 31.292969 24.183594 "/>
<path style=" stroke:none;fill-rule:nonzero;fill:rgb(14.117647%,14.117647%,16.862745%);fill-opacity:1;" d="M 20.070312 32.679688 L 31.898438 32.679688 C 32.113281 32.679688 32.304688 32.550781 32.386719 32.355469 L 35.144531 25.753906 L 34.535156 25.503906 L 31.8125 32.027344 L 20.152344 32.027344 C 18.972656 29.589844 18.40625 23.507812 18.3125 22.425781 C 21.476562 21.257812 26.6875 21.417969 26.742188 21.421875 L 26.835938 21.421875 C 30.109375 21.421875 33.503906 22.335938 34.394531 22.59375 L 34.3125 23.296875 L 34.96875 23.371094 L 35.058594 22.554688 C 35.089844 22.304688 34.933594 22.070312 34.6875 21.996094 C 33.988281 21.792969 30.347656 20.769531 26.835938 20.769531 L 26.757812 20.769531 C 26.453125 20.757812 21.234375 20.609375 17.980469 21.851562 C 17.761719 21.9375 17.628906 22.152344 17.644531 22.382812 C 17.75 23.609375 18.324219 29.859375 19.597656 32.386719 C 19.6875 32.566406 19.867188 32.679688 20.070312 32.679688 Z M 21.664062 30.898438 L 25.59375 30.898438 C 26.160156 30.898438 26.632812 30.480469 26.699219 29.925781 L 27.363281 24.277344 C 27.398438 23.957031 27.296875 23.640625 27.078125 23.40625 C 26.859375 23.167969 26.546875 23.039062 26.226562 23.050781 L 20.726562 23.226562 C 20.40625 23.238281 20.109375 23.382812 19.90625 23.628906 C 19.703125 23.871094 19.617188 24.191406 19.667969 24.503906 L 20.570312 29.976562 C 20.65625 30.507812 21.121094 30.898438 21.664062 30.898438 Z M 26.261719 23.441406 C 26.460938 23.441406 26.648438 23.523438 26.785156 23.671875 C 26.925781 23.820312 26.992188 24.027344 26.96875 24.230469 L 26.304688 29.882812 C 26.261719 30.238281 25.957031 30.507812 25.59375 30.507812 L 21.664062 30.507812 C 21.3125 30.507812 21.015625 30.257812 20.960938 29.914062 L 20.058594 24.441406 C 20.023438 24.242188 20.078125 24.035156 20.210938 23.878906 C 20.339844 23.71875 20.535156 23.625 20.738281 23.621094 L 26.238281 23.441406 C 26.246094 23.441406 26.253906 23.441406 26.261719 23.441406 Z M 26.261719 23.441406 "/>
<path style=" stroke:none;fill-rule:nonzero;fill:rgb(14.117647%,14.117647%,16.862745%);fill-opacity:1;" d="M 28.746094 18.472656 L 28.089844 18.472656 L 28.089844 21.152344 L 28.746094 21.152344 Z M 26.007812 18.5 L 25.351562 18.5 L 25.351562 21.085938 L 26.007812 21.085938 Z M 26.007812 18.5 "/>
<path style=" stroke:none;fill-rule:nonzero;fill:rgb(14.117647%,14.117647%,16.862745%);fill-opacity:1;" d="M 27.039062 18.863281 L 27.050781 18.859375 L 36.625 18.421875 C 37.203125 18.394531 37.730469 18.0625 38 17.554688 C 38.121094 17.324219 38.1875 17.0625 38.1875 16.800781 L 38.1875 14.617188 L 37.527344 14.617188 L 37.527344 16.800781 C 37.527344 16.960938 37.488281 17.113281 37.417969 17.253906 C 37.253906 17.554688 36.941406 17.753906 36.597656 17.769531 L 27.03125 18.207031 L 18.320312 17.972656 C 17.789062 17.957031 17.371094 17.535156 17.371094 17.007812 L 17.371094 6.953125 L 17.367188 6.929688 C 17.367188 6.914062 17.324219 6.402344 17.894531 5.738281 C 18.800781 4.679688 21.148438 3.347656 27.1875 2.972656 C 27.359375 2.96875 31.382812 2.902344 34.589844 4 C 37.78125 5.09375 37.535156 7.472656 37.53125 7.496094 L 37.527344 7.535156 L 37.527344 7.851562 L 38.1875 7.851562 L 38.1875 7.550781 C 38.199219 7.414062 38.238281 6.738281 37.882812 5.929688 C 37.535156 5.128906 36.714844 4.039062 34.804688 3.382812 C 31.429688 2.226562 27.335938 2.316406 27.164062 2.320312 L 27.152344 2.320312 C 20.816406 2.710938 18.324219 4.1875 17.351562 5.359375 C 16.683594 6.164062 16.699219 6.835938 16.710938 6.988281 L 16.710938 17.003906 C 16.710938 17.890625 17.410156 18.601562 18.300781 18.625 Z M 27.039062 18.863281 "/>
<path style=" stroke:none;fill-rule:nonzero;fill:rgb(14.117647%,14.117647%,16.862745%);fill-opacity:1;" d="M 37.78125 14.945312 C 39.386719 14.945312 40.695312 13.28125 40.695312 11.234375 C 40.695312 9.1875 39.386719 7.523438 37.78125 7.523438 C 36.171875 7.523438 34.863281 9.1875 34.863281 11.234375 C 34.863281 13.28125 36.171875 14.945312 37.78125 14.945312 Z M 37.78125 8.175781 C 39.023438 8.175781 40.035156 9.546875 40.035156 11.234375 C 40.035156 12.921875 39.023438 14.292969 37.78125 14.292969 C 36.535156 14.292969 35.523438 12.921875 35.523438 11.234375 C 35.523438 9.546875 36.535156 8.175781 37.78125 8.175781 Z M 17.019531 15.210938 L 17.0625 14.558594 C 15.976562 14.484375 15.125 13.3125 15.125 11.886719 C 15.125 10.464844 15.976562 9.292969 17.0625 9.21875 L 17.019531 8.570312 C 15.589844 8.667969 14.46875 10.125 14.46875 11.886719 C 14.46875 13.652344 15.589844 15.113281 17.019531 15.210938 Z M 17.019531 15.210938 "/>
<path style=" stroke:none;fill-rule:nonzero;fill:rgb(14.117647%,14.117647%,16.862745%);fill-opacity:1;" d="M 36.792969 14.945312 C 37 14.945312 37.207031 14.929688 37.414062 14.898438 L 37.359375 14.578125 L 37.359375 14.25 L 37.335938 14.25 L 37.308594 14.253906 C 37.140625 14.28125 36.964844 14.292969 36.792969 14.292969 C 35.003906 14.292969 33.546875 12.851562 33.546875 11.078125 C 33.546875 9.304688 35.003906 7.863281 36.792969 7.863281 C 37.359375 7.863281 37.914062 8.007812 38.402344 8.289062 L 38.46875 8.355469 L 38.609375 8.355469 L 38.613281 8.023438 L 38.84375 7.800781 L 38.746094 7.703125 L 38.695312 7.703125 C 38.113281 7.378906 37.457031 7.210938 36.792969 7.210938 C 34.640625 7.210938 32.886719 8.945312 32.886719 11.078125 C 32.886719 13.210938 34.640625 14.945312 36.792969 14.945312 Z M 17.039062 16.625 L 17.039062 17.007812 C 17.039062 17.707031 17.605469 18.28125 18.3125 18.300781 L 27.035156 18.535156 L 36.613281 18.097656 C 37.089844 18.074219 37.5 17.796875 37.707031 17.40625 L 32.699219 16.558594 L 18.144531 17.394531 C 17.765625 17.414062 17.390625 17.25 17.175781 16.941406 C 17.109375 16.84375 17.058594 16.738281 17.039062 16.625 Z M 27.042969 7.625 C 28.148438 7.625 29.046875 8.5625 29.046875 9.710938 C 29.046875 10.863281 28.148438 11.800781 27.042969 11.800781 C 25.9375 11.800781 25.039062 10.863281 25.039062 9.710938 C 25.039062 8.5625 25.9375 7.625 27.042969 7.625 Z M 26.613281 9.589844 C 26.945312 9.589844 27.214844 9.308594 27.214844 8.960938 C 27.214844 8.617188 26.945312 8.335938 26.613281 8.335938 C 26.28125 8.335938 26.011719 8.617188 26.011719 8.960938 C 26.011719 9.308594 26.28125 9.589844 26.613281 9.589844 Z M 20.457031 7.625 C 21.5625 7.625 22.457031 8.5625 22.457031 9.710938 C 22.457031 10.863281 21.5625 11.800781 20.457031 11.800781 C 19.347656 11.800781 18.453125 10.863281 18.453125 9.710938 C 18.453125 8.5625 19.347656 7.625 20.457031 7.625 Z M 20.027344 9.589844 C 20.359375 9.589844 20.628906 9.308594 20.628906 8.960938 C 20.628906 8.617188 20.359375 8.335938 20.027344 8.335938 C 19.695312 8.335938 19.425781 8.617188 19.425781 8.960938 C 19.425781 9.308594 19.695312 9.589844 20.027344 9.589844 Z M 27.207031 12.519531 L 19.503906 13.085938 C 19.460938 13.085938 19.429688 13.125 19.433594 13.167969 L 19.648438 14.738281 C 19.652344 14.777344 19.6875 14.804688 19.726562 14.800781 L 26.980469 14.34375 C 27.015625 14.339844 27.046875 14.3125 27.050781 14.277344 L 27.285156 12.601562 C 27.292969 12.554688 27.253906 12.515625 27.207031 12.519531 Z M 24.980469 2.890625 L 25.617188 2.71875 C 25.578125 2.582031 25.558594 2.4375 25.558594 2.292969 C 25.558594 1.386719 26.300781 0.652344 27.214844 0.652344 C 28.128906 0.652344 28.871094 1.386719 28.871094 2.292969 C 28.871094 2.410156 28.859375 2.523438 28.835938 2.632812 L 29.480469 2.769531 C 29.515625 2.613281 29.53125 2.453125 29.53125 2.292969 C 29.53125 1.027344 28.492188 0 27.214844 0 C 25.941406 0 24.902344 1.027344 24.902344 2.292969 C 24.902344 2.496094 24.925781 2.695312 24.980469 2.890625 Z M 11.027344 32.230469 C 11.949219 32.230469 13.246094 32.082031 14.683594 31.476562 C 17.417969 30.324219 18.5625 28.164062 18.609375 28.074219 L 18.023438 27.773438 C 18.011719 27.792969 16.929688 29.820312 14.425781 30.878906 C 11.914062 31.9375 9.816406 31.472656 9.792969 31.46875 L 9.644531 32.101562 C 9.6875 32.113281 10.207031 32.230469 11.027344 32.230469 Z M 10.210938 29.257812 C 14.476562 29.058594 16.125 26.722656 16.191406 26.625 L 15.648438 26.257812 L 15.917969 26.441406 L 15.648438 26.257812 C 15.632812 26.277344 14.097656 28.421875 10.179688 28.605469 Z M 10.210938 29.257812 "/>
<path style=" stroke:none;fill-rule:nonzero;fill:rgb(14.117647%,14.117647%,16.862745%);fill-opacity:1;" d="M 10.695312 29.929688 C 10.695312 30.980469 10.203125 31.917969 9.4375 32.527344 C 9.242188 32.683594 9.03125 32.816406 8.804688 32.925781 L 8.769531 32.402344 L 8.753906 32.210938 C 8.988281 32.066406 9.199219 31.886719 9.378906 31.683594 C 9.789062 31.210938 10.035156 30.601562 10.035156 29.929688 C 10.035156 29.125 9.679688 28.40625 9.113281 27.914062 C 8.90625 27.734375 8.671875 27.585938 8.421875 27.476562 L 8.371094 26.757812 C 8.609375 26.835938 8.835938 26.9375 9.050781 27.066406 C 10.035156 27.648438 10.695312 28.714844 10.695312 29.929688 Z M 5.03125 27.496094 L 5.074219 27.457031 C 5.097656 27.433594 5.125 27.410156 5.152344 27.386719 C 5.308594 27.253906 5.480469 27.136719 5.65625 27.035156 L 5.679688 27.355469 L 5.703125 27.695312 L 5.710938 27.78125 C 5.488281 27.945312 5.289062 28.144531 5.128906 28.371094 C 5.117188 28.386719 5.105469 28.398438 5.097656 28.414062 C 4.796875 28.847656 4.621094 29.367188 4.621094 29.929688 C 4.621094 30.628906 4.890625 31.261719 5.332031 31.738281 C 5.332031 31.738281 5.332031 31.742188 5.332031 31.742188 C 5.535156 31.957031 5.769531 32.140625 6.03125 32.285156 L 6.0625 32.703125 L 6.078125 32.90625 L 6.070312 32.90625 L 6.078125 33.027344 C 5.996094 32.996094 5.917969 32.960938 5.839844 32.921875 C 5.714844 32.859375 5.589844 32.789062 5.476562 32.710938 C 5.449219 32.695312 5.425781 32.679688 5.398438 32.660156 C 5.398438 32.660156 5.394531 32.65625 5.390625 32.65625 C 5.390625 32.65625 5.386719 32.652344 5.386719 32.652344 C 4.527344 32.046875 3.960938 31.054688 3.960938 29.929688 C 3.960938 28.972656 4.375 28.105469 5.03125 27.496094 Z M 7.980469 18.234375 L 7.320312 18.234375 L 7.320312 20.722656 L 7.980469 20.722656 Z M 5.945312 18.3125 L 5.285156 18.3125 L 5.285156 20.785156 L 5.945312 20.785156 Z M 5.945312 18.3125 "/>
<path style=" stroke:none;fill-rule:nonzero;fill:rgb(14.117647%,14.117647%,16.862745%);fill-opacity:1;" d="M 5.640625 18.5625 L 7.664062 18.5625 C 8.796875 18.5625 9.71875 17.648438 9.71875 16.523438 L 9.71875 15.167969 L 9.0625 15.167969 L 9.0625 16.523438 C 9.0625 17.289062 8.433594 17.910156 7.664062 17.910156 L 5.640625 17.910156 C 4.871094 17.910156 4.242188 17.289062 4.242188 16.523438 L 4.242188 15.734375 L 3.582031 15.734375 L 3.582031 16.523438 C 3.582031 17.648438 4.507812 18.5625 5.640625 18.5625 Z M 5.640625 18.5625 "/>
<path style=" stroke:none;fill-rule:nonzero;fill:rgb(14.117647%,14.117647%,16.862745%);fill-opacity:1;" d="M 1.96875 16.855469 L 2.402344 16.640625 C 2.421875 16.632812 4.09375 15.816406 6.507812 15.527344 C 8.917969 15.238281 11.183594 15.75 11.207031 15.753906 L 11.648438 15.855469 L 11.109375 9.660156 L 10.875 9.605469 C 10.78125 9.582031 8.480469 9.066406 5.949219 9.367188 C 3.417969 9.671875 1.703125 10.511719 1.628906 10.546875 L 1.429688 10.644531 Z M 8.078125 14.785156 C 7.554688 14.785156 6.996094 14.8125 6.425781 14.878906 C 4.609375 15.097656 3.214844 15.589844 2.546875 15.863281 L 2.125 11.039062 C 2.640625 10.816406 4.097656 10.246094 6.027344 10.015625 C 7.992188 9.78125 9.855469 10.074219 10.496094 10.195312 L 10.917969 15.03125 C 10.355469 14.933594 9.3125 14.785156 8.078125 14.785156 Z M 8.078125 14.785156 "/>
<path style=" stroke:none;fill-rule:nonzero;fill:rgb(14.117647%,14.117647%,16.862745%);fill-opacity:1;" d="M 2.027344 10.605469 L 2.683594 10.574219 L 2.585938 8.742188 C 3.011719 8.542969 4.179688 8.058594 5.855469 7.953125 C 7.511719 7.847656 8.824219 8.0625 9.34375 8.167969 L 9.34375 9.734375 L 10.003906 9.734375 L 10.003906 7.65625 L 9.757812 7.589844 C 9.691406 7.574219 8.070312 7.160156 5.8125 7.300781 C 3.53125 7.445312 2.140625 8.234375 2.082031 8.265625 L 1.90625 8.367188 Z M 2.027344 10.605469 "/>
<path style=" stroke:none;fill-rule:nonzero;fill:rgb(14.117647%,14.117647%,16.862745%);fill-opacity:1;" d="M 1.296875 17.363281 C 1.332031 17.363281 1.367188 17.363281 1.402344 17.355469 L 2.039062 17.257812 C 2.394531 17.203125 2.648438 16.882812 2.617188 16.527344 L 1.992188 9.5 C 1.976562 9.296875 1.871094 9.109375 1.707031 8.988281 C 1.542969 8.867188 1.332031 8.820312 1.132812 8.859375 L 0.578125 8.972656 C 0.21875 9.042969 -0.0273438 9.371094 0.00390625 9.734375 L 0.613281 16.742188 C 0.628906 16.929688 0.722656 17.105469 0.871094 17.21875 C 0.992188 17.3125 1.144531 17.363281 1.296875 17.363281 Z M 1.9375 16.613281 L 1.300781 16.710938 C 1.296875 16.710938 1.289062 16.714844 1.28125 16.707031 C 1.269531 16.699219 1.269531 16.691406 1.269531 16.6875 L 0.660156 9.675781 C 0.65625 9.644531 0.679688 9.617188 0.710938 9.613281 L 1.261719 9.5 C 1.28125 9.496094 1.296875 9.5 1.3125 9.511719 C 1.328125 9.523438 1.335938 9.539062 1.335938 9.554688 L 1.960938 16.585938 C 1.960938 16.597656 1.953125 16.609375 1.9375 16.613281 Z M 11.675781 16.527344 C 11.710938 16.527344 11.746094 16.523438 11.78125 16.519531 L 12.417969 16.421875 C 12.773438 16.363281 13.027344 16.042969 12.996094 15.6875 L 12.375 8.660156 C 12.355469 8.457031 12.253906 8.273438 12.085938 8.152344 C 11.921875 8.027344 11.714844 7.984375 11.511719 8.023438 L 10.957031 8.132812 C 10.597656 8.207031 10.351562 8.535156 10.382812 8.894531 L 10.992188 15.90625 C 11.007812 16.09375 11.105469 16.265625 11.253906 16.382812 C 11.375 16.476562 11.523438 16.527344 11.675781 16.527344 Z M 12.316406 15.777344 L 11.679688 15.875 C 11.675781 15.875 11.667969 15.875 11.660156 15.867188 C 11.648438 15.863281 11.648438 15.851562 11.648438 15.851562 L 11.039062 8.839844 C 11.035156 8.808594 11.058594 8.78125 11.089844 8.773438 L 11.644531 8.664062 C 11.660156 8.660156 11.679688 8.664062 11.691406 8.675781 C 11.707031 8.683594 11.714844 8.699219 11.71875 8.71875 L 12.339844 15.746094 C 12.34375 15.761719 12.332031 15.773438 12.316406 15.777344 Z M 29.828125 32.351562 L 29.171875 32.351562 L 29.171875 40.144531 L 29.828125 40.144531 Z M 27.195312 32.351562 L 26.535156 32.351562 L 26.535156 39.453125 L 27.195312 39.453125 Z M 25.351562 32.351562 L 24.691406 32.351562 L 24.691406 39.417969 L 25.351562 39.417969 Z M 22.714844 32.351562 L 22.058594 32.351562 L 22.058594 39.992188 L 22.714844 39.992188 Z M 22.714844 32.351562 "/>
<path style=" stroke:none;fill-rule:nonzero;fill:rgb(14.117647%,14.117647%,16.862745%);fill-opacity:1;" d="M 16.632812 45.003906 L 34.871094 45.003906 L 34.636719 44.53125 C 33.828125 42.917969 32.585938 41.550781 31.046875 40.585938 C 29.464844 39.589844 27.632812 39.066406 25.75 39.066406 C 23.867188 39.066406 22.039062 39.589844 20.453125 40.585938 C 18.914062 41.550781 17.675781 42.917969 16.867188 44.53125 Z M 33.792969 44.351562 L 17.710938 44.351562 C 19.355469 41.480469 22.386719 39.71875 25.75 39.71875 C 29.113281 39.71875 32.148438 41.480469 33.792969 44.351562 Z M 33.792969 44.351562 "/>
<path style=" stroke:none;fill-rule:nonzero;fill:rgb(14.117647%,14.117647%,16.862745%);fill-opacity:1;" d="M 13.28125 44.351562 L 36.164062 44.351562 C 36.34375 44.351562 36.492188 44.496094 36.492188 44.675781 C 36.492188 44.859375 36.34375 45.003906 36.164062 45.003906 L 13.28125 45.003906 C 13.101562 45.003906 12.953125 44.859375 12.953125 44.675781 C 12.953125 44.496094 13.097656 44.351562 13.28125 44.351562 Z M 37.59375 31.589844 C 37.671875 30.976562 37.976562 27.816406 36.175781 25.8125 L 35.683594 26.25 C 37.296875 28.039062 37.011719 30.941406 36.941406 31.507812 Z M 40.042969 32.613281 C 40.195312 32.273438 40.671875 31 40.40625 28.890625 C 40.09375 26.414062 37.917969 24.242188 37.824219 24.148438 L 37.359375 24.613281 C 37.382812 24.632812 39.46875 26.722656 39.75 28.972656 C 39.996094 30.914062 39.574219 32.046875 39.441406 32.347656 Z M 40.042969 32.613281 "/>
<path style=" stroke:none;fill-rule:nonzero;fill:rgb(14.117647%,14.117647%,16.862745%);fill-opacity:1;" d="M 38.375 34.980469 C 39.316406 34.980469 40.125 34.53125 40.351562 33.789062 C 40.644531 32.816406 39.835938 31.714844 38.542969 31.332031 C 37.253906 30.945312 35.960938 31.421875 35.667969 32.390625 C 35.371094 33.359375 36.183594 34.464844 37.472656 34.847656 C 37.777344 34.9375 38.082031 34.980469 38.375 34.980469 Z M 39.71875 33.601562 C 39.53125 34.214844 38.589844 34.5 37.664062 34.222656 C 36.738281 33.945312 36.113281 33.195312 36.296875 32.578125 C 36.484375 31.964844 37.425781 31.679688 38.355469 31.957031 C 39.28125 32.234375 39.90625 32.984375 39.71875 33.601562 Z M 39.71875 33.601562 "/>
<path style=" stroke:none;fill-rule:nonzero;fill:rgb(14.117647%,14.117647%,16.862745%);fill-opacity:1;" d="M 35.574219 36.148438 C 35.777344 36.148438 35.867188 36.117188 35.917969 36.085938 L 36.027344 36.027344 L 36.734375 33.972656 L 36.113281 33.761719 L 35.515625 35.496094 L 35.308594 35.476562 C 35.097656 35.453125 34.824219 35.246094 34.703125 35.132812 C 34.71875 35.007812 34.785156 34.714844 34.976562 34.035156 C 35.148438 33.410156 35.222656 32.796875 35.253906 32.480469 C 35.472656 32.429688 35.761719 32.566406 35.855469 32.628906 L 36.210938 32.078125 C 36.136719 32.03125 35.453125 31.613281 34.851562 31.9375 C 34.710938 32.015625 34.617188 32.15625 34.605469 32.316406 C 34.589844 32.507812 34.527344 33.191406 34.339844 33.859375 C 33.996094 35.082031 34 35.25 34.097656 35.417969 C 34.195312 35.597656 34.71875 36.066406 35.230469 36.125 C 35.371094 36.140625 35.484375 36.148438 35.574219 36.148438 Z M 35.660156 35.492188 Z M 34.703125 35.1875 Z M 34.703125 35.1875 "/>
<path style=" stroke:none;fill-rule:nonzero;fill:rgb(14.117647%,14.117647%,16.862745%);fill-opacity:1;" d="M 39.371094 38.898438 C 39.738281 38.898438 39.925781 38.871094 39.941406 38.871094 L 40.152344 38.839844 L 40.210938 38.632812 L 40.949219 35.894531 C 41.066406 35.367188 41.132812 33.636719 40.273438 33 L 39.878906 33.519531 C 40.394531 33.90625 40.414062 35.277344 40.304688 35.75 C 40.21875 36.144531 39.796875 37.664062 39.636719 38.238281 C 39.34375 38.253906 38.742188 38.253906 37.835938 38.125 C 36.855469 37.988281 36.027344 37.558594 35.660156 37.339844 L 36.074219 35.890625 L 35.441406 35.710938 L 35.007812 37.234375 C 34.9375 37.46875 35.039062 37.726562 35.25 37.855469 C 35.609375 38.078125 36.574219 38.609375 37.746094 38.773438 C 38.464844 38.871094 39.007812 38.898438 39.371094 38.898438 Z M 39.371094 38.898438 "/>
<path style=" stroke:none;fill-rule:nonzero;fill:rgb(14.117647%,14.117647%,16.862745%);fill-opacity:1;" d="M 37.726562 38.601562 C 37.800781 38.601562 37.867188 38.550781 37.886719 38.480469 L 38.582031 35.863281 C 38.605469 35.777344 38.550781 35.6875 38.464844 35.664062 C 38.375 35.640625 38.285156 35.695312 38.261719 35.78125 L 37.566406 38.398438 C 37.542969 38.484375 37.597656 38.574219 37.683594 38.597656 C 37.699219 38.601562 37.710938 38.601562 37.726562 38.601562 Z M 5.332031 31.742188 L 5.386719 32.496094 L 5.402344 32.714844 L 5.421875 32.949219 L 5.839844 32.921875 L 6.070312 32.90625 L 6.078125 32.90625 L 6.0625 32.703125 L 6.03125 32.285156 C 5.769531 32.140625 5.535156 31.957031 5.332031 31.742188 Z M 4.648438 22.09375 L 4.65625 22.230469 L 5.03125 27.496094 L 5.097656 28.414062 L 5.128906 28.371094 C 5.289062 28.144531 5.488281 27.945312 5.710938 27.78125 L 5.703125 27.695312 L 5.679688 27.355469 L 5.65625 27.035156 L 5.3125 22.1875 C 5.308594 22.15625 5.308594 22.125 5.308594 22.09375 C 5.308594 21.386719 5.867188 20.796875 6.578125 20.746094 C 6.941406 20.722656 7.292969 20.835938 7.566406 21.074219 C 7.84375 21.308594 8.011719 21.640625 8.035156 22 L 8.371094 26.757812 L 8.421875 27.476562 L 8.753906 32.210938 L 8.769531 32.402344 L 8.804688 32.925781 L 8.816406 33.082031 L 9.140625 33.058594 L 9.476562 33.058594 L 9.425781 32.355469 L 9.378906 31.683594 L 9.113281 27.914062 L 9.0625 27.238281 L 9.050781 27.066406 L 8.691406 21.953125 C 8.652344 21.421875 8.40625 20.933594 8 20.582031 C 7.59375 20.230469 7.070312 20.058594 6.53125 20.09375 C 5.476562 20.167969 4.648438 21.046875 4.648438 22.09375 Z M 4.648438 22.09375 "/>
<path style=" stroke:none;fill-rule:nonzero;fill:rgb(14.117647%,14.117647%,16.862745%);fill-opacity:1;" d="M 7.640625 37.816406 C 7.6875 37.816406 7.734375 37.8125 7.78125 37.8125 C 8.894531 37.734375 9.738281 36.773438 9.660156 35.671875 L 9.425781 32.355469 L 8.769531 32.402344 L 9.003906 35.71875 C 9.054688 36.460938 8.488281 37.109375 7.738281 37.160156 C 6.984375 37.210938 6.332031 36.648438 6.28125 35.90625 L 6.035156 32.453125 L 5.378906 32.5 L 5.621094 35.953125 C 5.699219 37.007812 6.589844 37.816406 7.640625 37.816406 Z M 17.585938 28.417969 L 17.59375 28.417969 L 17.40625 28.652344 C 16.90625 28.546875 16.476562 28.253906 16.191406 27.855469 C 16.550781 28.203125 17.042969 28.417969 17.585938 28.417969 Z M 37.351562 14.90625 L 37.527344 14.929688 L 37.527344 15.191406 C 37.363281 15.214844 37.199219 15.226562 37.03125 15.226562 C 35.773438 15.226562 34.65625 14.632812 33.941406 13.714844 C 34.65625 14.472656 35.667969 14.945312 36.792969 14.945312 C 36.980469 14.945312 37.167969 14.929688 37.351562 14.90625 Z M 37.351562 14.90625 "/>
<path style=" stroke:none;fill-rule:nonzero;fill:rgb(14.117647%,14.117647%,16.862745%);fill-opacity:1;" d="M 28.160156 18.429688 C 28.183594 19.066406 28.222656 20.535156 28.089844 19.996094 C 27.917969 19.320312 26.007812 18.832031 26.007812 18.832031 L 26.070312 18.429688 Z M 28.160156 18.429688 "/>
<path style=" stroke:none;fill-rule:nonzero;fill:rgb(14.117647%,14.117647%,16.862745%);fill-opacity:1;" d="M 29.246094 32.527344 C 29.269531 33.160156 29.308594 34.628906 29.175781 34.09375 C 29.007812 33.414062 27.097656 32.929688 27.097656 32.929688 L 27.15625 32.527344 Z M 29.246094 32.527344 "/>
<path style=" stroke:none;fill-rule:nonzero;fill:rgb(14.117647%,14.117647%,16.862745%);fill-opacity:1;" d="M 24.765625 32.441406 C 24.789062 33.078125 24.832031 34.546875 24.695312 34.007812 C 24.527344 33.332031 22.617188 32.84375 22.617188 32.84375 L 22.679688 32.441406 Z M 24.765625 32.441406 "/>
<path style=" stroke:none;fill-rule:nonzero;fill:rgb(14.117647%,14.117647%,16.862745%);fill-opacity:1;" d="M 5.402344 8.910156 C 5.414062 8.914062 5.421875 8.910156 5.429688 8.910156 C 6.089844 8.75 6.644531 8.84375 6.648438 8.84375 C 6.703125 8.855469 6.753906 8.820312 6.765625 8.765625 C 6.773438 8.714844 6.738281 8.664062 6.683594 8.652344 C 6.660156 8.648438 6.085938 8.550781 5.382812 8.71875 C 5.332031 8.730469 5.296875 8.785156 5.3125 8.835938 C 5.320312 8.878906 5.359375 8.910156 5.402344 8.910156 Z M 6.53125 20.09375 C 7.070312 20.058594 7.59375 20.230469 8 20.582031 C 8.40625 20.933594 8.652344 21.421875 8.691406 21.953125 L 9.050781 27.066406 L 9.0625 27.238281 L 9.113281 27.914062 L 9.378906 31.683594 L 9.425781 32.355469 L 9.4375 32.527344 L 9.660156 35.671875 C 9.738281 36.773438 8.894531 37.734375 7.78125 37.808594 C 7.734375 37.8125 7.6875 37.816406 7.640625 37.816406 C 6.589844 37.816406 5.699219 37.007812 5.625 35.949219 L 5.394531 32.714844 L 5.390625 32.65625 L 5.378906 32.496094 L 5.386719 32.496094 L 5.332031 31.742188 C 5.535156 31.957031 5.769531 32.140625 6.03125 32.285156 L 6.0625 32.703125 L 6.078125 32.90625 L 6.070312 32.90625 L 6.078125 33.027344 L 6.28125 35.90625 C 6.332031 36.648438 6.984375 37.210938 7.738281 37.160156 C 8.488281 37.109375 9.054688 36.460938 9.003906 35.714844 L 8.816406 33.082031 L 8.804688 32.925781 L 8.769531 32.402344 L 8.753906 32.210938 L 8.421875 27.476562 L 8.371094 26.757812 L 8.035156 22 C 8.011719 21.640625 7.84375 21.308594 7.566406 21.074219 C 7.292969 20.835938 6.941406 20.722656 6.578125 20.746094 C 5.867188 20.796875 5.308594 21.386719 5.308594 22.09375 C 5.308594 22.125 5.308594 22.15625 5.3125 22.1875 L 5.65625 27.035156 L 5.679688 27.355469 L 5.703125 27.695312 L 5.710938 27.78125 C 5.488281 27.945312 5.289062 28.144531 5.128906 28.371094 L 5.03125 27.496094 L 4.65625 22.230469 C 4.652344 22.1875 4.648438 22.140625 4.648438 22.09375 C 4.648438 21.046875 5.476562 20.167969 6.53125 20.09375 Z M 6.53125 20.09375 "/>
<path style=" stroke:none;fill-rule:nonzero;fill:rgb(14.117647%,14.117647%,16.862745%);fill-opacity:1;" d="M 5.152344 27.386719 L 5.679688 27.355469 C 5.679688 27.355469 7.457031 27.292969 7.625 28.46875 L 7.804688 31.433594 C 7.84375 32.089844 7.03125 32.65625 6.375 32.695312 L 6.0625 32.703125 L 5.476562 32.710938 L 5.402344 32.714844 L 5.390625 32.714844 L 5.386719 32.652344 L 5.332031 31.738281 L 5.332031 31.742188 C 5.535156 31.957031 5.769531 32.140625 6.03125 32.285156 L 5.472656 32.027344 C 5.472656 32.027344 7.109375 32.230469 7.109375 31.226562 L 6.945312 28.511719 C 6.679688 27.773438 5.179688 28.058594 5.179688 28.058594 L 5.710938 27.78125 C 5.488281 27.945312 5.289062 28.144531 5.128906 28.371094 L 5.074219 27.457031 L 5.070312 27.394531 Z M 5.152344 27.386719 "/>
<path style=" stroke:none;fill-rule:nonzero;fill:rgb(31.764706%,16.862745%,9.411765%);fill-opacity:1;" d="M 13.546875 29.902344 C 13.546875 30.011719 13.632812 30.097656 13.742188 30.097656 C 13.851562 30.097656 13.9375 30.011719 13.9375 29.902344 C 13.9375 29.796875 13.851562 29.710938 13.742188 29.710938 C 13.632812 29.710938 13.546875 29.796875 13.546875 29.902344 Z M 13.546875 29.902344 "/>
<path style=" stroke:none;fill-rule:nonzero;fill:rgb(10.196078%,10.196078%,10.196078%);fill-opacity:1;" d="M 21.96875 25.339844 C 21.96875 25.445312 22.054688 25.535156 22.164062 25.535156 C 22.269531 25.535156 22.359375 25.445312 22.359375 25.339844 C 22.359375 25.234375 22.269531 25.148438 22.164062 25.148438 C 22.054688 25.148438 21.96875 25.234375 21.96875 25.339844 Z M 21.96875 25.339844 "/>
</g>
</svg>
